<svg width="21" height="20" viewBox="0 0 21 20" fill="none" xmlns="http://www.w3.org/2000/svg">
<path d="M16.3333 9.16667H4.66667C3.74619 9.16667 3 9.91286 3 10.8333V16.6667C3 17.5871 3.74619 18.3333 4.66667 18.3333H16.3333C17.2538 18.3333 18 17.5871 18 16.6667V10.8333C18 9.91286 17.2538 9.16667 16.3333 9.16667Z" stroke="#AF786F" stroke-width="1.56522" stroke-linecap="round" stroke-linejoin="round"/>
<path d="M6.33333 9.16667V5.83334C6.33333 4.72827 6.77232 3.66846 7.55372 2.88706C8.33512 2.10566 9.39493 1.66667 10.5 1.66667C11.6051 1.66667 12.6649 2.10566 13.4463 2.88706C14.2277 3.66846 14.6667 4.72827 14.6667 5.83334V9.16667" stroke="#AF786F" stroke-width="1.56522" stroke-linecap="round" stroke-linejoin="round"/>
</svg>
